# xmcd
#
# Track frame offsets:
#	150
#	40286
#	59225
#	102204
#	131375
#	181200
#	209929
#	245839
#	259003
#	300891
#
# Disc length: 4336 seconds
#
# Revision: 0
# Processed by: cddbd v1.5.2PL0 Copyright (c) Steve Scherf et al.
# Submitted via: EasyCDDAExtractor 4.6.9.1
#
DISCID=9310ee0a
DTITLE=Ian Parker - The official bootleg
DYEAR=2008
DGENRE=Bluesrock
TTITLE0=All the time
TTITLE1=Waste my days
TTITLE2=Love so cold
TTITLE3=Before our eyes
TTITLE4=Don't hold back
TTITLE5=Everyday
TTITLE6=Little wing
TTITLE7=If it must be
TTITLE8=In the morning
TTITLE9=With or without you
EXTD=
EXTT0=
EXTT1=
EXTT2=
EXTT3=
EXTT4=
EXTT5=
EXTT6=
EXTT7=
EXTT8=
EXTT9=
PLAYORDER=
